<svg width="16" height="16" viewBox="0 0 16 16" fill="none" xmlns="http://www.w3.org/2000/svg">
<path d="M8 0C3.589 0 0 3.589 0 8C0 12.411 3.589 16 8 16C12.411 16 16 12.411 16 8C16 3.589 12.411 0 8 0ZM8 15C4.14 15 1 11.859 1 8C1 4.14 4.14 1 8 1C11.859 1 15 4.14 15 8C15 11.859 11.859 15 8 15Z" fill="white"/>
<path d="M7.99997 2C7.57997 2 7.16997 2.044 6.77397 2.126C7.50197 3.158 8.16297 4.232 8.74497 5.345C9.84597 4.832 10.882 4.17 11.828 3.38C10.789 2.518 9.45497 2 7.99997 2Z" fill="white"/>
<path d="M12.541 4.08602C11.512 4.95302 10.38 5.67202 9.17799 6.23402C9.44098 6.78202 9.68499 7.33702 9.91098 7.90102C11.239 7.62802 12.621 7.60302 13.991 7.83002C13.951 6.40002 13.413 5.09602 12.541 4.08602Z" fill="white"/>
<path d="M5.77005 2.43302C3.96905 3.15502 2.60305 4.72302 2.15905 6.64802C4.10105 6.73102 6.02305 6.40702 7.81205 5.72402C7.21105 4.58302 6.53005 3.48302 5.77005 2.43302Z" fill="white"/>
<path d="M8.26 6.62898C6.528 7.30398 4.678 7.67198 2.797 7.67198C2.538 7.67198 2.278 7.65598 2.018 7.64198C2.011 7.76098 2 7.87898 2 7.99998C2 9.47297 2.533 10.821 3.414 11.865C4.855 10.076 6.792 8.79397 8.936 8.14997C8.727 7.63598 8.501 7.12998 8.26 6.62898Z" fill="white"/>
<path d="M10.278 8.84802C10.755 10.178 11.129 11.545 11.403 12.939C12.755 12.006 13.699 10.533 13.936 8.83102C12.71 8.61402 11.471 8.62402 10.278 8.84802Z" fill="white"/>
<path d="M9.29599 9.07997C7.27999 9.66897 5.45899 10.879 4.12399 12.576C5.16999 13.463 6.52099 14 7.99999 14C8.88799 14 9.72899 13.802 10.487 13.455C10.212 11.961 9.81199 10.499 9.29599 9.07997Z" fill="white"/>
</svg>
