<svg width="48" height="48" viewBox="0 0 48 48" fill="none" xmlns="http://www.w3.org/2000/svg">
<rect opacity="0.1" x="0.5" y="0.5" width="47" height="47" rx="1.5" stroke="#FFFCFC"/>
<g opacity="0.2">
<path d="M24.111 37.9991C29.6077 37.9991 37.2854 38.1318 40.0779 32.5452C41.1315 30.4099 41.3673 27.9445 41.3673 25.6191H41.3659C41.3659 22.5642 40.5185 19.6553 38.4923 17.2916C38.868 16.1628 39.0596 14.9735 39.0596 13.7769C39.0596 12.209 38.7059 11.4221 37.9839 10C34.6829 10 32.5461 10.6189 30.0409 12.5671C28.1105 12.1088 26.1063 11.8966 24.1169 11.8966C21.9138 11.8966 19.7166 12.1235 17.5813 12.626C15.0393 10.6572 12.9025 10.0015 9.56473 10.0015C8.85149 11.4235 8.49045 12.2105 8.49045 13.7784C8.49045 14.9735 8.67465 16.1834 9.0578 17.3358C7.02418 19.6774 6 22.5642 6 25.6191C6 27.9445 6.41409 30.432 7.48838 32.5467C10.3914 38.1981 18.5259 37.9991 24.111 37.9991ZM16.3169 23.2775C17.7169 23.2775 19.0653 23.5251 20.4431 23.7152C25.48 24.4814 28.1282 23.2775 31.2154 23.2775C34.6623 23.2775 36.6311 26.0995 36.6311 29.3002C36.6311 35.7091 30.7144 36.6861 25.5346 36.6861H21.9831C16.8254 36.6861 10.9013 35.7032 10.9013 29.3002C10.9013 26.0995 12.8672 23.2775 16.3169 23.2775Z" fill="#FFFCFC"/>
<path d="M30.5435 33.3189C32.4445 33.3189 33.2476 30.8255 33.2476 29.3002C33.2476 27.775 32.4445 25.2816 30.5435 25.2816C28.6425 25.2816 27.8393 27.775 27.8393 29.3002C27.8393 30.8255 28.6425 33.3189 30.5435 33.3189Z" fill="#FFFCFC"/>
<path d="M17.0081 33.3189C18.9091 33.3189 19.7122 30.8255 19.7122 29.3002C19.7122 27.775 18.9076 25.2831 17.0081 25.2831C15.1086 25.2831 14.304 27.7765 14.304 29.3017C14.304 30.8269 15.1071 33.3189 17.0081 33.3189Z" fill="#FFFCFC"/>
</g>
</svg>
