<svg width="16" height="16" viewBox="0 0 16 16" fill="none" xmlns="http://www.w3.org/2000/svg">
<path d="M8.00281 3.89154C5.73414 3.89154 3.89748 5.73017 3.89748 7.9968C3.89748 10.2654 5.73614 12.1021 8.00281 12.1021C10.2715 12.1021 12.1081 10.2634 12.1081 7.9968C12.1081 5.72817 10.2695 3.89154 8.00281 3.89154ZM8.00281 10.6614C6.53014 10.6614 5.33814 9.46877 5.33814 7.9968C5.33814 6.52483 6.53081 5.33218 8.00281 5.33218C9.47481 5.33218 10.6675 6.52483 10.6675 7.9968C10.6681 9.46877 9.47548 10.6614 8.00281 10.6614Z" fill="white"/>
<path d="M11.2988 0.0502569C9.82682 -0.0184086 6.18082 -0.0150753 4.70749 0.0502569C3.41282 0.110923 2.27082 0.423584 1.35015 1.34423C-0.188515 2.88287 0.00815151 4.95617 0.00815151 7.99679C0.00815151 11.1087 -0.165182 13.134 1.35015 14.6493C2.89482 16.1933 4.99815 15.9913 8.00282 15.9913C11.0855 15.9913 12.1495 15.9933 13.2395 15.5713C14.7215 14.996 15.8402 13.6714 15.9495 11.2921C16.0188 9.81942 16.0148 6.17415 15.9495 4.70084C15.8175 1.89223 14.3102 0.188921 11.2988 0.0502569ZM13.6288 13.6314C12.6202 14.64 11.2208 14.55 7.98349 14.55C4.65015 14.55 3.31349 14.5993 2.33815 13.6214C1.21482 12.5034 1.41815 10.7081 1.41815 7.98612C1.41815 4.30285 1.04015 1.65023 4.73682 1.4609C5.58615 1.4309 5.83615 1.4209 7.97415 1.4209L8.00415 1.4409C11.5568 1.4409 14.3442 1.06891 14.5115 4.76484C14.5495 5.60816 14.5582 5.86149 14.5582 7.99612C14.5575 11.2907 14.6202 12.6354 13.6288 13.6314Z" fill="white"/>
<path d="M12.2708 4.68881C12.8006 4.68881 13.2301 4.25931 13.2301 3.72949C13.2301 3.19968 12.8006 2.77018 12.2708 2.77018C11.741 2.77018 11.3115 3.19968 11.3115 3.72949C11.3115 4.25931 11.741 4.68881 12.2708 4.68881Z" fill="white"/>
</svg>
