<svg width="16" height="16" viewBox="0 0 16 16" fill="none" xmlns="http://www.w3.org/2000/svg">
<path d="M15.996 16L16 15.9993V10.1313C16 7.26068 15.382 5.04935 12.026 5.04935C10.4127 5.04935 9.33001 5.93468 8.88801 6.77401H8.84134V5.31735H5.65935V15.9993H8.97268V10.71C8.97268 9.31734 9.23668 7.97068 10.9613 7.97068C12.6607 7.97068 12.686 9.56001 12.686 10.7993V16H15.996Z" fill="white"/>
<path d="M0.263997 5.31798H3.58133V16H0.263997V5.31798Z" fill="white"/>
<path d="M1.92133 0C0.860665 0 0 0.860665 0 1.92133C0 2.982 0.860665 3.86066 1.92133 3.86066C2.982 3.86066 3.84266 2.982 3.84266 1.92133C3.84199 0.860665 2.98133 0 1.92133 0Z" fill="white"/>
</svg>
