<svg width="30" height="50" viewBox="0 0 30 50" fill="none" xmlns="http://www.w3.org/2000/svg">
<path d="M22.1491 9.61629C22.1491 11.1385 21.9298 12.7632 21.4912 14.4903C21.0527 16.1882 20.4386 17.886 19.6491 19.5839C18.8597 21.2524 17.8801 22.8625 16.7105 24.414C15.5702 25.9362 14.269 27.2827 12.807 28.4537C11.345 29.5953 9.73685 30.5174 7.98246 31.22C6.25732 31.9226 4.41521 32.2738 2.45614 32.2738C2.04679 32.2738 1.63743 32.2446 1.22807 32.186C0.818714 32.1568 0.409357 32.1128 0 32.0543C0.789474 28.0146 1.56433 24.0773 2.32456 20.2425C2.61696 18.6325 2.92398 16.9639 3.24562 15.2368C3.56726 13.4804 3.87427 11.7532 4.16667 10.0554C4.45907 8.35754 4.73685 6.73287 5.00001 5.18138C5.2924 3.62989 5.52632 2.22477 5.70176 0.966021C6.95907 0.731834 8.231 0.512283 9.51755 0.307369C10.8041 0.102456 12.1199 0 13.4649 0C15.0439 0 16.3743 0.248823 17.4562 0.746468C18.5673 1.24412 19.4591 1.93204 20.1316 2.81024C20.8334 3.68844 21.3451 4.71301 21.6667 5.88394C21.9883 7.05487 22.1491 8.29899 22.1491 9.61629ZM11.7983 6.19131C11.4766 7.91844 11.1404 9.57238 10.7895 11.1531C10.4386 12.7339 10.0877 14.3293 9.73685 15.9393C9.38597 17.5494 9.0351 19.2326 8.68422 20.989C8.33334 22.7454 7.99708 24.6628 7.67545 26.7412C8.3772 26.2728 9.04972 25.6434 9.69299 24.8531C10.3655 24.0334 10.9942 23.0967 11.579 22.0428C12.1638 20.989 12.6901 19.8766 13.1579 18.7057C13.655 17.5347 14.079 16.3931 14.4298 15.2807C14.7807 14.1683 15.0439 13.1291 15.2193 12.1631C15.424 11.197 15.5263 10.3628 15.5263 9.6602C15.5263 8.57708 15.2193 7.72816 14.6053 7.11342C14.0205 6.49868 13.0848 6.19131 11.7983 6.19131Z" fill="#FFFCFC"/>
<path d="M28.9474 31.5713C28.7427 34.5572 28.1579 37.1625 27.193 39.3873C26.2281 41.5828 25.0585 43.427 23.6842 44.9199C22.3392 46.4129 20.8772 47.5253 19.2982 48.2571C17.7485 48.9889 16.2719 49.3548 14.8684 49.3548C13.7865 49.3548 12.7485 49.1207 11.7544 48.6523C10.7895 48.1839 9.9415 47.4813 9.2105 46.5446C8.50875 45.5786 7.95319 44.3784 7.54384 42.944C7.13448 41.5096 6.9298 39.8264 6.9298 37.8943C6.9298 34.1181 7.47074 30.8248 8.55261 28.0146C9.63448 25.2043 10.9941 22.8625 12.6316 20.989C14.2982 19.1155 16.0672 17.725 17.9386 16.8175C19.8392 15.9101 21.6082 15.4563 23.2456 15.4563C24.4152 15.4563 25.424 15.6612 26.2719 16.0711C27.1491 16.4809 27.8655 17.0371 28.421 17.7396C28.9766 18.4129 29.3713 19.2179 29.6053 20.1547C29.8684 21.0622 30 22.0282 30 23.0527L23.9912 24.1944C23.7281 23.0235 23.3772 22.1892 22.9386 21.6915C22.5 21.1939 22.0029 20.9451 21.4474 20.9451C20.7164 20.9451 19.9123 21.472 19.0351 22.5258C18.1579 23.5504 17.3392 24.8823 16.5789 26.5216C15.8187 28.1609 15.1754 29.9613 14.6491 31.9226C14.1228 33.8839 13.8304 35.8159 13.7719 37.7187C13.7719 39.5336 14.0351 40.8363 14.5614 41.6267C15.1169 42.3878 15.8187 42.7683 16.6667 42.7683C17.2514 42.7683 17.8509 42.622 18.4649 42.3292C19.1082 42.0365 19.6784 41.6267 20.1754 41.0998C20.6725 40.5436 21.0819 39.9142 21.4035 39.2116C21.7544 38.4798 21.9444 37.6894 21.9737 36.8405L17.2807 37.543L18.114 33.196C19.4883 33.0203 20.8333 32.8447 22.1491 32.669C23.2602 32.5227 24.4298 32.347 25.6579 32.1421C26.9152 31.9372 28.0117 31.7469 28.9474 31.5713Z" fill="#FFFCFC"/>
</svg>
