<svg width="24" height="24" viewBox="0 0 24 24" fill="none" xmlns="http://www.w3.org/2000/svg">
<rect width="24" height="24" fill="#101010"/>
<path d="M14.0943 7.60568C14.0943 8.04981 14.0304 8.52383 13.9024 9.02775C13.7744 9.52312 13.5953 10.0185 13.3649 10.5139C13.1346 11.0007 12.8488 11.4705 12.5075 11.9231C12.1748 12.3672 11.7952 12.7601 11.3686 13.1018C10.9421 13.4349 10.4729 13.7039 9.961 13.9089C9.45766 14.1139 8.9202 14.2164 8.34862 14.2164C8.22918 14.2164 8.10974 14.2078 7.99031 14.1907C7.87087 14.1822 7.75144 14.1694 7.632 14.1523C7.86234 12.9737 8.08842 11.8249 8.31023 10.706C8.39554 10.2363 8.48511 9.74945 8.57896 9.24554C8.6728 8.73308 8.76238 8.22917 8.84769 7.7338C8.933 7.23842 9.01404 6.7644 9.09082 6.31173C9.17614 5.85906 9.24439 5.4491 9.29557 5.08184C9.66241 5.01351 10.0335 4.94945 10.4089 4.88967C10.7843 4.82988 11.1682 4.79999 11.5606 4.79999C12.0213 4.79999 12.4094 4.87259 12.7251 5.01778C13.0493 5.16298 13.3095 5.36369 13.5057 5.61992C13.7104 5.87614 13.8597 6.17508 13.9536 6.51671C14.0474 6.85835 14.0943 7.22134 14.0943 7.60568ZM11.0743 6.60639C10.9805 7.11031 10.8824 7.59287 10.78 8.05408C10.6776 8.51529 10.5752 8.98077 10.4729 9.45052C10.3705 9.92027 10.2681 10.4114 10.1657 10.9238C10.0634 11.4363 9.96527 11.9957 9.87142 12.6021C10.0762 12.4655 10.2724 12.2818 10.4601 12.0512C10.6563 11.8121 10.8397 11.5388 11.0103 11.2313C11.181 10.9238 11.3345 10.5993 11.471 10.2576C11.616 9.916 11.7397 9.58291 11.8421 9.25835C11.9445 8.9338 12.0213 8.63059 12.0725 8.34874C12.1322 8.06689 12.162 7.82348 12.162 7.61849C12.162 7.30248 12.0725 7.05479 11.8933 6.87543C11.7227 6.69607 11.4497 6.60639 11.0743 6.60639Z" fill="#FFFCFC"/>
<path d="M16.0778 14.0114C16.0181 14.8825 15.8475 15.6427 15.566 16.2918C15.2844 16.9324 14.9432 17.4705 14.5422 17.906C14.1498 18.3416 13.7232 18.6662 13.2625 18.8797C12.8104 19.0932 12.3796 19.2 11.9701 19.2C11.6544 19.2 11.3516 19.1317 11.0615 18.995C10.78 18.8584 10.5326 18.6534 10.3193 18.3801C10.1146 18.0982 9.95246 17.748 9.83302 17.3295C9.71359 16.911 9.65387 16.4199 9.65387 15.8562C9.65387 14.7544 9.8117 13.7936 10.1273 12.9737C10.443 12.1537 10.8397 11.4705 11.3174 10.9238C11.8037 10.3772 12.3199 9.97152 12.8658 9.70675C13.4204 9.44198 13.9365 9.3096 14.4142 9.3096C14.7555 9.3096 15.0498 9.36938 15.2972 9.48896C15.5532 9.60853 15.7622 9.77081 15.9243 9.97579C16.0864 10.1722 16.2015 10.4071 16.2698 10.6804C16.3465 10.9452 16.3849 11.227 16.3849 11.526L14.6318 11.8591C14.555 11.5174 14.4526 11.274 14.3247 11.1288C14.1967 10.9836 14.0517 10.911 13.8896 10.911C13.6763 10.911 13.4417 11.0648 13.1858 11.3722C12.9298 11.6712 12.691 12.0598 12.4691 12.5381C12.2473 13.0164 12.0597 13.5416 11.9061 14.1139C11.7525 14.6861 11.6672 15.2498 11.6502 15.805C11.6502 16.3345 11.7269 16.7146 11.8805 16.9452C12.0426 17.1672 12.2473 17.2783 12.4947 17.2783C12.6654 17.2783 12.8403 17.2356 13.0194 17.1502C13.2071 17.0648 13.3734 16.9452 13.5185 16.7914C13.6635 16.6292 13.7829 16.4455 13.8768 16.2406C13.9792 16.027 14.0346 15.7964 14.0431 15.5487L12.6739 15.7537L12.917 14.4854C13.318 14.4342 13.7104 14.3829 14.0943 14.3317C14.4185 14.289 14.7598 14.2377 15.1181 14.1779C15.4849 14.1181 15.8048 14.0626 16.0778 14.0114Z" fill="#FFFCFC"/>
</svg>
